<svg width="17" height="17" viewBox="0 0 17 17" fill="none" xmlns="http://www.w3.org/2000/svg">
<path d="M6.10528 8.81107V9.06107V16.7006C6.10528 16.7133 6.11557 16.7236 6.12833 16.7236H9.27469C9.28745 16.7236 9.29774 16.7133 9.29774 16.7006V9.09706V8.84706H9.54774H11.681C11.6926 8.84706 11.7025 8.83826 11.7039 8.82665L11.7039 8.82659L12.0279 6.01414L6.10528 8.81107ZM6.10528 8.81107H5.85528M6.10528 8.81107H5.85528M5.85528 8.81107H3.99961C3.98691 8.81107 3.97656 8.8008 3.97656 8.78797V6.01142C3.97656 5.99866 3.98685 5.98838 3.99961 5.98838H5.94768H6.19768V5.73838V3.67677V3.65519L6.19398 3.63393C6.16088 3.44362 6.00856 2.26447 7.0844 1.27458C8.0691 0.368682 9.32524 0.294769 9.6895 0.294769C9.73667 0.294769 9.76727 0.295932 9.77869 0.296491L9.77867 0.29679H9.79091H12.005C12.0178 0.29679 12.0281 0.307076 12.0281 0.319836V2.90143C12.0281 2.91417 12.0178 2.92448 12.005 2.92448V3.17448M5.85528 8.81107L12.005 3.17448M12.005 3.17448L12.005 2.92448H12.005H12.0049H12.0048H12.0046H12.0044H12.0042H12.0039H12.0036H12.0033H12.003H12.0026H12.0021H12.0017H12.0012H12.0007H12.0001H11.9995H11.9989H11.9982H11.9975H11.9968H11.9961H11.9953H11.9945H11.9936H11.9927H11.9918H11.9909H11.9899H11.9889H11.9879H11.9868H11.9857H11.9846H11.9834H11.9823H11.981H11.9798H11.9785H11.9772H11.9759H11.9745H11.9731H11.9717H11.9702H11.9688H11.9672H11.9657H11.9641H11.9625H11.9609H11.9593H11.9576H11.9559H11.9542H11.9524H11.9506H11.9488H11.9469H11.9451H11.9432H11.9413H11.9393H11.9373H11.9353H11.9333H11.9312H11.9292H11.9271H11.9249H11.9228H11.9206H11.9184H11.9161H11.9139H11.9116H11.9093H11.907H11.9046H11.9022H11.8998H11.8974H11.8949H11.8924H11.8899H11.8874H11.8849H11.8823H11.8797H11.8771H11.8745H11.8718H11.8691H11.8664H11.8637H11.8609H11.8581H11.8553H11.8525H11.8497H11.8468H11.8439H11.841H11.8381H11.8352H11.8322H11.8292H11.8262H11.8232H11.8201H11.8171H11.814H11.8109H11.8077H11.8046H11.8014H11.7982H11.795H11.7918H11.7886H11.7853H11.782H11.7787H11.7754H11.772H11.7687H11.7653H11.7619H11.7585H11.7551H11.7516H11.7482H11.7447H11.7412H11.7377H11.7342H11.7306H11.7271H11.7235H11.7199H11.7163H11.7126H11.709H11.7053H11.7017H11.698H11.6943H11.6905H11.6868H11.683H11.6793H11.6755H11.6717H11.6679H11.6641H11.6602H11.6564H11.6525H11.6486H11.6447H11.6408H11.6369H11.633H11.629H11.625H11.6211H11.6171H11.6131H11.6091H11.605H11.601H11.597H11.5929H11.5888H11.5847H11.5806H11.5765H11.5724H11.5683H11.5641H11.56H11.5558H11.5517H11.5475H11.5433H11.5391H11.5349H11.5306H11.5264H11.5222H11.5179H11.5136H11.5094H11.5051H11.5008H11.4965H11.4922H11.4879H11.4836H11.4792H11.4749H11.4705H11.4662H11.4618H11.4574H11.4531H11.4487H11.4443H11.4399H11.4355H11.431H11.4266H11.4222H11.4178H11.4133H11.4089H11.4044H11.3999H11.3955H11.391H11.3865H11.382H11.3776H11.3731H11.3686H11.3641H11.3595H11.355H11.3505H11.346H11.3415H11.3369H11.3324H11.3279H11.3233H11.3188H11.3142H11.3097H11.3051H11.3006H11.296H11.2914H11.2869H11.2823H11.2777H11.2732H11.2686H11.264H11.2594H11.2548H11.2503H11.2457H11.2411H11.2365H11.2319H11.2273H11.2227H11.2181H11.2135H11.209H11.2044H11.1998H11.1952H11.1906H11.186H11.1814H11.1768H11.1722H11.1676H11.163H11.1585H11.1539H11.1493H11.1447H11.1401H11.1355H11.131H11.1264H11.1218H11.1172H11.1127H11.1081H11.1035H11.099H11.0944H11.0899H11.0853H11.0808H11.0762H11.0717H11.0671H11.0626H11.0581H11.0535H11.049H11.0445H11.04H11.0355H11.031H11.0265H11.022H11.0175H11.013H11.0085H11.0041H10.9996H10.9951H10.9907H10.9862H10.9818H10.9774H10.9729H10.9685H10.9641H10.9597H10.9553H10.9509H10.9465H10.9421H10.9378H10.9334H10.929H10.9247H10.9203H10.916H10.9117H10.9074H10.9031H10.8988H10.8945H10.8902H10.8859H10.8817H10.8774H10.8732H10.8689H10.8647H10.8605H10.8563H10.8521H10.8479H10.8438H10.8396H10.8354H10.8313H10.8272H10.8231H10.819H10.8149H10.8108H10.8067H10.8026H10.7986H10.7946H10.7905H10.7865H10.7825H10.7785H10.7746H10.7706H10.7667H10.7627H10.7588H10.7549H10.751H10.7471H10.7433H10.7394H10.7356H10.7318H10.7279H10.7242H10.7204H10.7166H10.7129H10.7091H10.7054H10.7017H10.698H10.6943H10.6907H10.687H10.6834H10.6798H10.6762H10.6726H10.6691H10.6655H10.662H10.6585H10.655H10.6515H10.648H10.6446H10.6412H10.6378H10.6344H10.631H10.6277H10.6243H10.621H10.6177H10.6144H10.6112H10.6079H10.6047H10.6015H10.5983H10.5951H10.592H10.5889H10.5858H10.5827H10.5796H10.5766H10.5735H10.5705H10.5676H10.5646H10.5617H10.5587H10.5558H10.5529H10.5501H10.5473H10.5444H10.5416H10.5389H10.5361H10.5334H10.5307H10.528H10.5254H10.5227H10.5201H10.5175H10.5149H10.5124H10.5099H10.5074H10.5049H10.5025H10.5H10.4976H10.4952H10.4929H10.4906H10.4883H10.486H10.4837H10.4815H10.4793H10.4771H10.475H10.4728H10.4707H10.4686H10.4666H10.4646H10.4626H10.4606H10.4587H10.4567H10.4548H10.453H10.4511H10.4493H10.4475H10.4458H10.444H10.4423H10.4407H10.439H10.4374H10.4358H10.4343H10.4327H10.4312H10.4297H10.4283H10.4269H10.4255H10.4241H10.4228H10.4215H10.4202H10.419H10.4178H10.4166H10.4154H10.4143H10.4132H10.4122H10.4111H10.4101H10.4092H10.4082H10.4073H10.4064H10.4056H10.4048H10.404H10.4033H10.4025H10.4019H10.4012H10.4006H10.4H10.3994H10.3989H10.3984C10.0805 2.92448 9.79554 3.00019 9.59009 3.19365C9.38188 3.38971 9.29785 3.66628 9.29785 3.97543V5.73843V5.98843H9.54785H12.005V3.17448ZM12.0223 5.9962C12.0265 6.00093 12.0286 6.00743 12.0279 6.0141L12.0223 5.9962Z" fill="#090909" stroke="white" stroke-width="0.5"/>
</svg>
