<svg width="17" height="17" viewBox="0 0 17 17" fill="none" xmlns="http://www.w3.org/2000/svg">
<path d="M15.8609 9.6546V16.0212H13.1277V10.4546C13.1277 9.57945 12.9487 8.96129 12.5937 8.56202C12.233 8.15613 11.7313 8.02118 11.1943 8.02118C10.0582 8.02118 8.96089 8.93296 8.96089 10.5546V16.0212H6.02771V5.78801H8.76089V7.0546L9.20883 7.14654C9.33652 6.84862 9.67558 6.43114 10.1977 6.08698C10.7148 5.7462 11.3958 5.488 12.1943 5.488C13.102 5.488 14.0142 5.75073 14.6976 6.38783C15.3773 7.0214 15.8609 8.05346 15.8609 9.6546ZM3.6609 16.0212H0.727718V5.78801H3.6609V16.0212ZM2.19431 3.82119C1.22322 3.82119 0.527722 3.12568 0.527722 2.15459C0.527722 1.19143 1.31515 0.488003 2.19431 0.488003C3.1654 0.488003 3.8609 1.1835 3.8609 2.15459C3.8609 3.12568 3.1654 3.82119 2.19431 3.82119Z" fill="#070707" stroke="white" stroke-width="0.46682"/>
</svg>
