<svg width="29" height="29" viewBox="0 0 29 29" fill="none" xmlns="http://www.w3.org/2000/svg">
<path d="M6.88348 8.61486C6.88348 17.2067 13.8485 24.1718 22.4404 24.1718C23.1549 24.1718 23.8583 24.1236 24.5472 24.0304C25.5246 23.898 26.1955 23.0229 26.1955 22.0367V19.281C26.1955 18.3575 25.6045 17.5374 24.7283 17.2454L21.3504 16.1194C20.4916 15.8332 19.5706 16.3386 19.3511 17.217C19.0581 18.3891 17.5984 18.7934 16.7441 17.939L13.1162 14.3112C12.2619 13.4568 12.6662 11.9972 13.8383 11.7042C14.7167 11.4846 15.2221 10.5637 14.9358 9.70476L13.8099 6.32696C13.5178 5.45075 12.6978 4.85974 11.7742 4.85974H9.01858C8.03233 4.85974 7.15726 5.53065 7.02494 6.50799C6.93166 7.19698 6.88348 7.90029 6.88348 8.61486Z" stroke="#090909" stroke-width="1.34401" stroke-linejoin="round"/>
</svg>
