<svg width="29" height="29" viewBox="0 0 29 29" fill="none" xmlns="http://www.w3.org/2000/svg">
<path d="M27.9007 24.5014C27.9007 24.5014 27.9007 13.7318 27.9007 10.1451C27.9007 9.99729 27.7147 9.81128 27.5335 9.67297L23.7801 6.94956V3.93999C23.7801 3.64428 23.5321 3.44396 23.2841 3.44396H19.006L16.8265 1.85571C16.6786 1.75555 16.4306 1.75555 16.278 1.85571L14.0984 3.44396H9.82037C9.52467 3.44396 9.32436 3.69198 9.32436 3.93999V6.91618L5.52324 9.67774C5.29908 9.81605 5.15601 9.99729 5.15601 10.1499C5.15601 13.7605 5.15601 24.6016 5.15601 24.6016C5.15601 24.883 5.38016 25.0785 5.61386 25.0976C5.62817 25.0976 5.6377 25.0976 5.65201 25.0976H27.4C27.7195 25.0929 27.9007 24.8448 27.9007 24.5014ZM26.9564 11.0371V23.6095L18.7485 17.0371L26.9564 11.0371ZM26.5892 10.1642L23.7801 12.2104V8.09902L26.5892 10.1642ZM16.5308 2.7953L17.4035 3.43919H15.6532L16.5308 2.7953ZM22.7881 4.43602V12.9353L16.5308 17.495L10.2735 12.9353V4.43602H22.7881ZM6.10509 11.0371L14.313 17.0371L6.10509 23.6477V11.0371ZM9.32913 12.2485L6.44848 10.1499L9.32913 8.05609V12.2485ZM6.99695 24.1485L15.1095 17.619L16.2303 18.4394C16.4449 18.6015 16.6071 18.6015 16.8265 18.4394L17.9472 17.619L26.1075 24.1485H6.99695Z" fill="black"/>
<path d="M19.907 6.86641H13.2061V7.81077H19.907V6.86641Z" fill="black"/>
<path d="M19.907 9.89723H13.2061V10.8416H19.907V9.89723Z" fill="black"/>
<path d="M19.907 12.9237H13.2061V13.8681H19.907V12.9237Z" fill="black"/>
</svg>
