<svg width="29" height="29" viewBox="0 0 29 29" fill="none" xmlns="http://www.w3.org/2000/svg">
<path d="M16.5405 25.8985C10.2676 25.8985 5.16815 20.7994 5.16815 14.5268C5.16815 8.25427 10.2676 3.14885 16.5405 3.14885C22.8134 3.14885 27.9129 8.24803 27.9129 14.5206C27.9129 20.7931 22.8134 25.8985 16.5405 25.8985ZM16.5405 4.43457C10.9792 4.43457 6.45394 8.95954 6.45394 14.5206C6.45394 20.0816 10.9792 24.6066 16.5405 24.6066C22.1019 24.6066 26.6271 20.0816 26.6271 14.5206C26.6271 8.95954 22.1019 4.43457 16.5405 4.43457Z" fill="#0F0F0F"/>
<path d="M17.1838 3.7938H15.898V25.2515H17.1838V3.7938Z" fill="#0F0F0F"/>
<path d="M16.5409 25.8985C13.1704 25.8985 10.5302 20.9055 10.5302 14.5268C10.5302 8.14817 13.1704 3.14885 16.5409 3.14885C19.9114 3.14885 22.5517 8.14193 22.5517 14.5206C22.5517 20.8992 19.9114 25.8985 16.5409 25.8985ZM16.5409 4.43457C14.2627 4.43457 11.8222 8.4852 11.8222 14.5206C11.8222 20.556 14.2627 24.6066 16.5409 24.6066C18.8191 24.6066 21.2596 20.556 21.2596 14.5206C21.2596 8.4852 18.8254 4.43457 16.5409 4.43457Z" fill="#0F0F0F"/>
<path d="M27.2701 13.8781H5.81116V15.1638H27.2701V13.8781Z" fill="#0F0F0F"/>
</svg>
