<svg width="29" height="29" viewBox="0 0 29 29" fill="none" xmlns="http://www.w3.org/2000/svg">
<path d="M16.5395 23.3807C16.1662 22.8885 14.4612 20.6135 12.79 17.9589C11.8827 16.5177 10.9932 14.9767 10.3325 13.5559C9.66136 12.1125 9.26661 10.8755 9.26661 10.0142C9.26661 6.19754 12.5061 3.04941 16.5391 3.04941C20.5723 3.04941 23.8123 6.19761 23.8123 10.0142C23.8123 10.8755 23.4175 12.1125 22.7464 13.5559C22.0858 14.9768 21.1962 16.5177 20.289 17.9589C18.6176 20.6137 16.9126 22.8888 16.5395 23.3807ZM19.9868 10.0142C19.9868 8.15013 18.4176 6.67691 16.5391 6.67691C14.6616 6.67691 13.0914 8.15001 13.0914 10.0142C13.0914 11.8775 14.6616 13.3515 16.5391 13.3515C18.4176 13.3515 19.9868 11.8774 19.9868 10.0142Z" stroke="black" stroke-width="1.24062"/>
</svg>
