<svg width="32" height="62" viewBox="0 0 32 62" fill="none" xmlns="http://www.w3.org/2000/svg">
<path d="M25.8036 46.0787C22.6884 46.4525 20.5078 47.3248 19.2618 48.6954C17.8911 50.0661 17.0812 51.4368 16.8319 52.8074C16.5827 54.0535 16.4581 54.6765 16.4581 54.6765C16.4581 54.6765 16.3335 54.0535 16.0843 52.8074C15.7105 51.4368 14.9006 50.0661 13.6545 48.6954C12.2838 47.3248 10.0409 46.4525 6.92578 46.0787C10.0409 45.5803 12.2838 44.6457 13.6545 43.2751C14.9006 41.9044 15.7105 40.5961 16.0843 39.35C16.3335 38.1039 16.4581 37.4809 16.4581 37.4809C16.4581 37.4809 16.5827 38.1039 16.8319 39.35C17.0812 40.5961 17.8911 41.9044 19.2618 43.2751C20.5078 44.6457 22.6884 45.5803 25.8036 46.0787Z" fill="#BF4326"/>
<path d="M16.0005 28.0098C9.84599 28.0098 4.84277 23.0066 4.84277 16.8521C4.84277 10.6976 9.84599 5.68823 16.0005 5.68823C22.155 5.68823 27.1582 10.6914 27.1582 16.8459C27.1582 23.0004 22.155 28.0098 16.0005 28.0098ZM16.0005 6.94975C10.5441 6.94975 6.10429 11.3896 6.10429 16.8459C6.10429 22.3023 10.5441 26.7421 16.0005 26.7421C21.4569 26.7421 25.8967 22.3023 25.8967 16.8459C25.8967 11.3896 21.4569 6.94975 16.0005 6.94975Z" fill="#0F0F0F"/>
<path d="M16.6316 6.32104H15.3701V27.375H16.6316V6.32104Z" fill="#0F0F0F"/>
<path d="M16.0009 28.0098C12.694 28.0098 10.1036 23.1107 10.1036 16.8521C10.1036 10.5935 12.694 5.68823 16.0009 5.68823C19.3078 5.68823 21.8982 10.5873 21.8982 16.8459C21.8982 23.1046 19.3078 28.0098 16.0009 28.0098ZM16.0009 6.94975C13.7657 6.94975 11.3712 10.9242 11.3712 16.8459C11.3712 22.7677 13.7657 26.7421 16.0009 26.7421C18.2361 26.7421 20.6305 22.7677 20.6305 16.8459C20.6305 10.9242 18.2422 6.94975 16.0009 6.94975Z" fill="#0F0F0F"/>
<path d="M26.5275 16.2156H5.47363V17.4771H26.5275V16.2156Z" fill="#0F0F0F"/>
<rect x="0.75" y="60.7664" width="59.5" height="30.5" rx="15.25" transform="rotate(-90 0.75 60.7664)" stroke="black" stroke-width="1.5"/>
</svg>
